<svg xmlns="http://www.w3.org/2000/svg" xmlns:xlink="http://www.w3.org/1999/xlink" width="40" zoomAndPan="magnify" viewBox="0 0 30 30.000001" height="40" preserveAspectRatio="xMidYMid meet" version="1.0"><defs><clipPath id="bf1011de48"><path d="M 0.484375 0 L 29.515625 0 L 29.515625 29.03125 L 0.484375 29.03125 Z M 0.484375 0 " clip-rule="nonzero"/></clipPath><clipPath id="c7e54430e5"><path d="M 15.125 4.769531 L 18.476562 4.769531 L 18.476562 25.175781 L 15.125 25.175781 Z M 15.125 4.769531 " clip-rule="nonzero"/></clipPath><clipPath id="adbdd7c630"><path d="M 11.164062 4.769531 L 14.515625 4.769531 L 14.515625 25.175781 L 11.164062 25.175781 Z M 11.164062 4.769531 " clip-rule="nonzero"/></clipPath><clipPath id="cab6286b77"><path d="M 2.855469 4.128906 L 14.113281 4.128906 L 14.113281 7.546875 L 2.855469 7.546875 Z M 2.855469 4.128906 " clip-rule="nonzero"/></clipPath><clipPath id="a1978dba1a"><path d="M 15.527344 4.128906 L 26.785156 4.128906 L 26.785156 7.546875 L 15.527344 7.546875 Z M 15.527344 4.128906 " clip-rule="nonzero"/></clipPath></defs><g clip-path="url(#bf1011de48)"><path fill="#ffffff" d="M 0.484375 0 L 29.515625 0 L 29.515625 29.03125 L 0.484375 29.03125 Z M 0.484375 0 " fill-opacity="1" fill-rule="nonzero"/><path fill="#ffffff" d="M 0.484375 0 L 29.515625 0 L 29.515625 29.03125 L 0.484375 29.03125 Z M 0.484375 0 " fill-opacity="1" fill-rule="nonzero"/></g><g clip-path="url(#c7e54430e5)"><path fill="#000000" d="M 15.128906 25.175781 L 15.125 4.769531 C 15.191406 4.816406 17.316406 6.960938 18.320312 8.007812 C 18.398438 8.089844 18.472656 8.25 18.472656 8.367188 C 18.480469 12.511719 18.476562 16.652344 18.472656 20.78125 C 18.472656 21.511719 18.5 21.777344 17.984375 22.257812 C 17.15625 23.027344 15.246094 25.066406 15.128906 25.175781 Z M 15.128906 25.175781 " fill-opacity="1" fill-rule="nonzero"/></g><g clip-path="url(#adbdd7c630)"><path fill="#000000" d="M 14.511719 25.175781 L 14.515625 4.769531 C 14.445312 4.816406 12.324219 6.960938 11.320312 8.007812 C 11.242188 8.089844 11.167969 8.25 11.167969 8.367188 C 11.160156 12.511719 11.164062 16.652344 11.167969 20.78125 C 11.167969 21.511719 11.140625 21.777344 11.65625 22.257812 C 12.480469 23.027344 14.390625 25.066406 14.511719 25.175781 Z M 14.511719 25.175781 " fill-opacity="1" fill-rule="nonzero"/></g><g clip-path="url(#cab6286b77)"><path fill="#000000" d="M 2.855469 4.128906 L 14.113281 4.128906 C 14.019531 4.234375 11.960938 6.375 10.980469 7.367188 C 10.882812 7.46875 10.710938 7.539062 10.574219 7.539062 C 9.179688 7.550781 7.78125 7.550781 6.386719 7.539062 C 6.261719 7.539062 6.109375 7.488281 6.023438 7.402344 C 5 6.367188 2.921875 4.210938 2.855469 4.128906 Z M 2.855469 4.128906 " fill-opacity="1" fill-rule="nonzero"/></g><g clip-path="url(#a1978dba1a)"><path fill="#000000" d="M 26.785156 4.128906 L 15.527344 4.128906 C 15.617188 4.234375 17.675781 6.375 18.660156 7.367188 C 18.757812 7.46875 18.929688 7.539062 19.066406 7.539062 C 20.460938 7.550781 21.855469 7.550781 23.25 7.539062 C 23.375 7.539062 23.53125 7.488281 23.617188 7.402344 C 24.636719 6.367188 26.71875 4.210938 26.785156 4.128906 Z M 26.785156 4.128906 " fill-opacity="1" fill-rule="nonzero"/></g></svg>